<?xml version="1.0" encoding="UTF-8"?>
<svg id="Capa_2" data-name="Capa 2" xmlns="http://www.w3.org/2000/svg" viewBox="0 0 226.77 226.77">
  <defs>
    <style>
      .cls-1 {
        fill: none;
      }

      .cls-2 {
        fill: #7db45b;
      }
    </style>
  </defs>
  <g id="Capa_4" data-name="Capa 4">
    <path class="cls-2" d="M198.43,85.04v28.35c0,45.36-35.51,82.42-80.24,84.9-.41.03-.83.05-1.24.06-1.18.06-2.37.08-3.56.08s-2.35-.02-3.52-.08c-.42-.01-.85-.03-1.28-.06-44.74-2.48-80.24-39.54-80.24-84.9v-28.35c1.61,0,3.21.04,4.8.14,1.57.08,3.13.21,4.67.39,42.51,4.71,75.57,40.75,75.57,84.51,0-43.76,33.05-79.8,75.57-84.51,1.54-.18,3.1-.31,4.67-.39,1.59-.1,3.19-.14,4.8-.14Z"/>
    <path class="cls-1" d="M21.26,70.86c0,3.92-3.17,7.09-7.08,7.09-.34,0-.67-.02-1-.08-2.73-.37-4.96-2.32-5.76-4.89-.22-.67-.33-1.38-.33-2.12,0-2.79,1.61-5.2,3.96-6.35.94-.47,2-.73,3.13-.73,1.65,0,3.18.57,4.39,1.52,1.64,1.3,2.69,3.31,2.69,5.56Z"/>
    <path class="cls-1" d="M219.69,70.86c0,.75-.12,1.47-.33,2.14-.81,2.56-3.04,4.49-5.76,4.87-.33.06-.66.08-1,.08-3.91,0-7.09-3.17-7.09-7.09,0-2.25,1.06-4.26,2.7-5.56,1.21-.95,2.74-1.52,4.39-1.52,1.12,0,2.18.26,3.12.73,2.35,1.15,3.97,3.56,3.97,6.35Z"/>
    <path class="cls-2" d="M207.75,50.5c-2.4.56-4.64,1.52-6.65,2.82C181.95,25.4,149.81,7.09,113.39,7.09S44.94,25.34,25.78,53.18c-2.03-1.28-4.29-2.22-6.71-2.75C39.41,20.02,74.06,0,113.39,0s74.03,20.05,94.36,50.5Z"/>
    <path class="cls-1" d="M21.26,70.86c0,3.92-3.17,7.09-7.08,7.09-.34,0-.67-.02-1-.08-2.73-.37-4.96-2.32-5.76-4.89-.22-.67-.33-1.38-.33-2.12,0-2.79,1.61-5.2,3.96-6.35.94-.47,2-.73,3.13-.73,1.65,0,3.18.57,4.39,1.52,1.64,1.3,2.69,3.31,2.69,5.56Z"/>
    <path class="cls-1" d="M219.69,70.86c0,.75-.12,1.47-.33,2.14-.81,2.56-3.04,4.49-5.76,4.87-.33.06-.66.08-1,.08-3.91,0-7.09-3.17-7.09-7.09,0-2.25,1.06-4.26,2.7-5.56,1.21-.95,2.74-1.52,4.39-1.52,1.12,0,2.18.26,3.12.73,2.35,1.15,3.97,3.56,3.97,6.35Z"/>
    <path class="cls-2" d="M222.16,81.33c2.83-2.59,4.61-6.32,4.61-10.46,0-7.83-6.34-14.18-14.17-14.18-.33,0-.66.01-.98.04-2.52.17-4.87,1-6.85,2.32-3.82,2.54-6.34,6.89-6.34,11.82,0,7.82,6.34,14.17,14.17,14.17,1.09,0,2.14-.12,3.16-.36.67,2.37,1.25,4.77,1.75,7.2,1.43,6.95,2.18,14.14,2.18,21.51,0,57.51-45.68,104.36-102.74,106.24-1.18.04-2.37.06-3.56.06s-2.35-.02-3.52-.06c-57.08-1.85-102.78-48.72-102.78-106.24,0-7.39.76-14.61,2.19-21.58.5-2.41,1.08-4.79,1.74-7.13,1.02.24,2.07.36,3.16.36,7.82,0,14.17-6.35,14.17-14.18,0-4.93-2.52-9.27-6.34-11.8-1.99-1.33-4.34-2.17-6.86-2.33-.32-.03-.64-.04-.97-.04-7.83,0-14.18,6.35-14.18,14.17,0,4.14,1.78,7.87,4.61,10.47-.74,2.47-1.39,4.98-1.94,7.53-1.75,7.9-2.67,16.11-2.67,24.53,0,61.44,48.88,111.47,109.87,113.32,1.17.04,2.34.06,3.52.06s2.38-.02,3.56-.06c60.97-1.88,109.82-51.89,109.82-113.32,0-8.36-.9-16.5-2.62-24.34-.57-2.61-1.23-5.19-1.99-7.72ZM11.05,64.51c.94-.47,2-.73,3.13-.73,1.65,0,3.18.57,4.39,1.52,1.64,1.3,2.69,3.31,2.69,5.56,0,3.92-3.17,7.09-7.08,7.09-.34,0-.67-.02-1-.08-2.73-.37-4.96-2.32-5.76-4.89-.22-.67-.33-1.38-.33-2.12,0-2.79,1.61-5.2,3.96-6.35ZM219.36,73c-.81,2.56-3.04,4.49-5.76,4.87-.33.06-.66.08-1,.08-3.91,0-7.09-3.17-7.09-7.09,0-2.25,1.06-4.26,2.7-5.56,1.21-.95,2.74-1.52,4.39-1.52,1.12,0,2.18.26,3.12.73,2.35,1.15,3.97,3.56,3.97,6.35,0,.75-.12,1.47-.33,2.14Z"/>
    <path class="cls-1" d="M219.69,70.86c0,.75-.12,1.47-.33,2.14-.81,2.56-3.04,4.49-5.76,4.87-.33.06-.66.08-1,.08-3.91,0-7.09-3.17-7.09-7.09,0-2.25,1.06-4.26,2.7-5.56,1.21-.95,2.74-1.52,4.39-1.52,1.12,0,2.18.26,3.12.73,2.35,1.15,3.97,3.56,3.97,6.35Z"/>
    <path class="cls-2" d="M183.25,65.42c-2.49.35-4.94.8-7.37,1.33-14.21-19.01-36.9-31.32-62.47-31.32s-48.26,12.31-62.47,31.32c-2.43-.53-4.88-.98-7.37-1.33,15.36-22.07,40.91-36.52,69.84-36.52s54.48,14.45,69.84,36.52Z"/>
    <path class="cls-2" d="M153.78,74.16c-2.27,1.04-4.49,2.17-6.67,3.38-8.85-8.19-20.69-13.2-33.7-13.2s-24.85,5.01-33.7,13.2c-2.19-1.21-4.43-2.35-6.71-3.4,10.29-10.43,24.58-16.89,40.39-16.89s30.11,6.47,40.39,16.91Z"/>
    <path class="cls-2" d="M128.92,90.22c-1.86,1.61-3.66,3.28-5.4,5.02-3.01-1.63-6.45-2.56-10.11-2.56s-7.1.93-10.11,2.56c-1.74-1.74-3.54-3.41-5.4-5.02,4.46-2.93,9.79-4.62,15.51-4.62s11.05,1.69,15.51,4.62Z"/>
    <path class="cls-2" d="M116.95,198.35v21.28c-1.18.04-2.37.06-3.56.06s-2.35-.02-3.52-.06v-21.28c1.17.06,2.34.08,3.52.08s2.38-.02,3.56-.08Z"/>
  </g>
</svg>